<?xml version="1.0" encoding="UTF-8" standalone="no"?>
<!-- Created with Inkscape (http://www.inkscape.org/) -->

<svg
   width="24"
   height="24"
   viewBox="0 0 6.35 6.3500002"
   version="1.1"
   id="svg60"
   inkscape:version="1.2.2 (732a01da63, 2022-12-09)"
   sodipodi:docname="icon.svg"
   inkscape:export-filename="/media/tomsneddon/CS_BACKUP/toms-image-slider/assets/icons/icon-256x256png.png"
   inkscape:export-xdpi="1024"
   inkscape:export-ydpi="1024"
   xml:space="preserve"
   xmlns:inkscape="http://www.inkscape.org/namespaces/inkscape"
   xmlns:sodipodi="http://sodipodi.sourceforge.net/DTD/sodipodi-0.dtd"
   xmlns="http://www.w3.org/2000/svg"
   xmlns:svg="http://www.w3.org/2000/svg"
   xmlns:rdf="http://www.w3.org/1999/02/22-rdf-syntax-ns#"
   xmlns:cc="http://creativecommons.org/ns#"
   xmlns:dc="http://purl.org/dc/elements/1.1/"><defs
     id="defs54"><clipPath
       id="ytp-svg-volume-animation-mask"><path
         d="m 14.35,-0.14 -5.86,5.86 20.73,20.78 5.86,-5.91 z"
         id="path910" /><path
         d="M 7.07,6.87 -1.11,15.33 19.61,36.11 27.80,27.60 z"
         id="path912" /><path
         class="ytp-svg-volume-animation-mover"
         d="M 9.09,5.20 6.47,7.88 26.82,28.77 29.66,25.99 z"
         transform="translate(0, 0)"
         id="path914" /></clipPath><clipPath
       id="ytp-svg-volume-animation-slash-mask"><path
         class="ytp-svg-volume-animation-mover"
         d="m -11.45,-15.55 -4.44,4.51 20.45,20.94 4.55,-4.66 z"
         transform="translate(0, 0)"
         id="path917" /></clipPath></defs><sodipodi:namedview
     id="base"
     pagecolor="#ffffff"
     bordercolor="#666666"
     borderopacity="1.0"
     inkscape:pageopacity="0.0"
     inkscape:pageshadow="2"
     inkscape:zoom="27.329595"
     inkscape:cx="12.459021"
     inkscape:cy="13.355485"
     inkscape:document-units="mm"
     inkscape:current-layer="layer1"
     showgrid="false"
     units="px"
     inkscape:window-width="1920"
     inkscape:window-height="1009"
     inkscape:window-x="-8"
     inkscape:window-y="-8"
     inkscape:window-maximized="1"
     inkscape:showpageshadow="2"
     inkscape:pagecheckerboard="0"
     inkscape:deskcolor="#d1d1d1" /><metadata
     id="metadata57"><rdf:RDF><cc:Work
         rdf:about=""><dc:format>image/svg+xml</dc:format><dc:type
           rdf:resource="http://purl.org/dc/dcmitype/StillImage" /><dc:title /></cc:Work></rdf:RDF></metadata><g
     inkscape:label="Layer 1"
     inkscape:groupmode="layer"
     id="layer1"
     transform="translate(0,-290.64998)"><path
       id="path2619"
       d="m 1.714624,292.76458 c -0.033239,0 -0.049609,0.0164 -0.049609,0.0496 v 0.0847 c 0,0.0332 0.016371,0.0501 0.049609,0.0501 h 0.9446452 c 0.033239,0 0.050126,-0.0169 0.050126,-0.0501 v -0.0847 c 0,-0.0332 -0.016887,-0.0496 -0.050126,-0.0496 z m 2.387968,0.0723 c -0.075418,-0.0196 -0.1576825,0.0106 -0.2382284,0.0563 -0.080546,0.0457 -0.1595397,0.10656 -0.1989542,0.16847 -0.039415,0.0619 -0.039479,0.12479 -0.01602,0.19017 0.023459,0.0654 0.070246,0.13335 0.1250569,0.16381 0.054812,0.0305 0.1177799,0.0232 0.1555461,0.004 0.037766,-0.0191 0.050345,-0.0501 0.027388,-0.0837 -0.022956,-0.0336 -0.081596,-0.0697 -0.1100708,-0.10955 -0.028474,-0.0399 -0.0264,-0.0835 0.0093,-0.12816 0.035702,-0.0447 0.105204,-0.0905 0.1731161,-0.0982 0.067912,-0.008 0.1356597,0.0234 0.1829346,0.0289 0.047275,0.005 0.074788,-0.0143 0.05426,-0.0589 -0.020528,-0.0446 -0.088914,-0.11373 -0.164331,-0.13332 z m -2.2029664,0.13849 A 0.68837656,0.68837656 0 0 0 1.740979,293.4048 v 0.42116 c 0,10e-4 9.833e-4,0.002 0.00207,0.002 h 0.3240112 a 0.00193208,0.00193208 0 0 0 0.00207,-0.002 v -0.0532 a 0.46285785,0.46285785 0 0 1 -0.1674317,-0.35554 0.46285785,0.46285785 0 0 1 0.00413,-0.0584 0.46285785,0.46285785 0 0 1 0.00258,-0.0155 0.46285785,0.46285785 0 0 1 0.0093,-0.0434 0.46285785,0.46285785 0 0 1 0.00362,-0.014 0.46285785,0.46285785 0 0 1 0.018603,-0.0522 0.46285785,0.46285785 0 0 1 0.00103,-0.002 0.46285785,0.46285785 0 0 1 0.028939,-0.0558 0.46285785,0.46285785 0 0 1 0.2573486,-0.2005 z m 1.133781,0.0858 -0.098185,0.1478 a 0.45636652,0.45636652 0 0 1 0.05116,0.20929 0.45636652,0.45636652 0 0 1 -0.099219,0.28422 v 0.10438 a 0.00191935,0.00191935 0 0 0 0.00207,0.002 h 0.01447 a 0.45158351,0.35906432 0 0 0 0.2072224,-0.13798 v -0.42219 l 0.080098,-0.18759 z m 0.2578653,0 -0.080098,0.18759 h 0.072864 v 5.1e-4 h 0.1736328 v -5.1e-4 h 0.1038697 c -0.022422,-0.0643 -0.022294,-0.12556 0.016536,-0.18655 1.257e-4,-2e-4 3.895e-4,-8.4e-4 5.167e-4,-10e-4 z m 0.7823813,0.24702 c -0.022217,-4.8e-4 -0.035186,0.0211 -0.03669,0.0553 -0.00209,0.0476 0.017858,0.11969 -5.167e-4,0.18552 -0.011514,0.0412 -0.037841,0.0809 -0.068213,0.11162 l 0.1715658,0.0377 c 0.045421,-0.063 0.076075,-0.12877 0.069763,-0.19533 -0.00736,-0.0776 -0.065195,-0.1561 -0.1059367,-0.18346 -0.011458,-0.008 -0.021278,-0.0112 -0.029972,-0.0114 z m -0.7022828,0.008 c -0.058143,0 -0.087333,0.0292 -0.087333,0.0873 v 0.13074 c 0,0.0581 0.02919,0.0868 0.087333,0.0868 0.058143,0 0.086816,-0.0287 0.086816,-0.0868 v -0.13074 c 0,-0.0582 -0.028674,-0.0873 -0.086816,-0.0873 z m 0.2821533,0.23306 c -0.01694,8.5e-4 -0.033035,0.0118 -0.047026,0.031 -0.024871,0.0342 -0.042037,0.095 -0.020671,0.154 0.021366,0.0589 0.081291,0.1163 0.1421102,0.14986 0.060819,0.0335 0.1222648,0.0435 0.1896526,0.0145 0.053038,-0.0229 0.1097542,-0.0698 0.1596801,-0.12403 l -0.2418457,-0.0537 c -0.018632,-0.003 -0.035713,-0.0126 -0.05116,-0.0279 -0.034822,-0.0345 -0.061443,-0.0986 -0.09095,-0.12661 -0.01291,-0.0122 -0.026615,-0.0177 -0.039791,-0.0171 z"
       style="stroke-width:0.00122497" /><path
       d="m 2.5209991,293.78527 a 0.08239964,0.08239964 0 0 1 -0.1120489,-0.007 l -0.3123084,-0.36232 a 0.08239964,0.08239964 0 0 1 0.047458,-0.13099 l 0.034201,-0.008 -9.999e-4,-10e-4 0.3153311,-0.0787 0.3152665,-0.0788 -0.1243422,0.30031 -0.1243402,0.30025 -2.996e-4,-3.5e-4 -0.013317,0.0326 a 0.08239964,0.08239964 0 0 1 -0.024601,0.0343 z m 0.0055,-0.24285 a 0.03555045,0.03555045 0 0 0 0.010583,-0.0148 l 0.00574,-0.0141 1.824e-4,2.1e-4 0.053619,-0.12952 0.053659,-0.12961 -0.1360482,0.034 -0.1360127,0.0339 3.94e-4,4.6e-4 -0.014809,0.004 a 0.03555045,0.03555045 0 0 0 -0.020409,0.0566 l 0.134711,0.15628 a 0.03555045,0.03555045 0 0 0 0.04836,0.003 z"
       fill="#ff0000"
       p-id="1831"
       id="path2623"
       inkscape:label="path2623"
       style="stroke-width:0.00122497" /><path
       inkscape:connector-curvature="0"
       id="path866"
       d="m 1.7900716,291.37655 a 0.12591424,0.12591424 0 0 0 -0.1260905,0.12557 v 0.37776 H 1.2862264 a 0.12591424,0.12591424 0 0 0 -0.1260905,0.12609 v 2.51819 a 0.12591424,0.12591424 0 0 0 0.1260905,0.12609 h 3.2737019 a 0.12591424,0.12591424 0 0 0 0.1260907,-0.12609 v -0.37775 h 0.3777546 a 0.12591424,0.12591424 0 0 0 0.1260903,-0.12609 v -2.5182 a 0.12591424,0.12591424 0 0 0 -0.1260903,-0.12557 z m 0.1255737,0.25166 h 3.0220376 v 2.26653 H 4.686019 v -1.88877 a 0.12591424,0.12591424 0 0 0 -0.1260907,-0.12609 h -2.644283 z m -0.5033284,0.50385 h 0.019637 2.9827636 0.019637 v 0.0191 1.97352 0.25373 c 0,0.0109 -0.00877,0.0196 -0.019637,0.0196 H 4.3666584 1.4319539 1.4123169 v -0.0196 -0.43149 -0.35605 -1.43971 z m -0.75189209,0.13488 c -0.0164666,0 -0.0319127,0.007 -0.0423747,0.0196 l -0.55655517,0.65526 c -0.08198407,0.0965 -0.08198407,0.23474 0,0.33125 l 0.55707193,0.65629 c 0.0102907,0.0123 0.0259096,0.0191 0.0423747,0.0191 h 0.0103354 v -0.44029 l -0.28422052,-0.33434 c -0.0327591,-0.0387 -0.0327591,-0.0942 0,-0.13281 l 0.28422038,-0.33486 v -0.43925 z m 5.01829839,0 v 0.43925 l 0.2842201,0.33486 c 0.032759,0.0386 0.032759,0.0941 0,0.13281 l -0.2842201,0.33434 v 0.44029 h 0.010335 c 0.016465,0 0.032084,-0.007 0.042375,-0.0191 l 0.557072,-0.6563 c 0.081984,-0.0965 0.081984,-0.23473 0,-0.33124 l -0.5565547,-0.65526 c -0.010462,-0.0123 -0.025908,-0.0196 -0.042375,-0.0196 z"
       style="display:inline;fill:#008000;fill-opacity:1;stroke-width:0.00167862" /><path
       inkscape:connector-curvature="0"
       id="path921"
       d="m 0.41651207,295.68585 v 1.20096 H 1.9177125 v -1.20096 z m 2.06705733,0 v 1.20096 h 1.5006837 v -1.20096 z m 2.0670574,0 v 1.20096 h 1.5006836 v -1.20096 z M 0.51624758,295.7861 H 1.8174602 v 1.00097 H 0.51624758 Z m 2.06705732,0 h 1.3012127 v 1.00097 H 2.5833049 Z m 2.0670574,0 H 5.951575 v 1.00097 H 4.6503623 Z m -3.0359905,0.10025 a 0.10007048,0.10007048 0 0 0 -0.097152,0.0997 0.10007048,0.10007048 0 1 0 0.1999878,0 0.10007048,0.10007048 0 0 0 -0.1028358,-0.0997 z m 2.0670572,0 a 0.10007048,0.10007048 0 0 0 -0.097152,0.0997 0.10007048,0.10007048 0 1 0 0.1999877,0 0.10007048,0.10007048 0 0 0 -0.1028357,-0.0997 z m 2.0670573,0 a 0.10007048,0.10007048 0 0 0 -0.097151,0.0997 0.10007048,0.10007048 0 1 0 0.1999877,0 0.10007048,0.10007048 0 0 0 -0.1028367,-0.0997 z m -4.86688636,0.14418 a 0.02506765,0.02506765 0 0 0 -0.0139525,0.007 l -0.29300547,0.26665 a 0.02491755,0.02491755 0 0 0 -0.008268,0.0186 v 0.41445 H 1.767334 v -0.2713 a 0.02501762,0.02501762 0 0 0 -0.011886,-0.0212 L 1.4856971,296.2804 a 0.02501762,0.02501762 0 0 0 -0.032556,0.005 l -0.1188558,0.14522 -0.00155,0.002 a 0.02501762,0.02501762 0 0 1 -0.03514,0 l -0.39532458,-0.39431 a 0.02506765,0.02506765 0 0 0 -0.0180867,-0.007 0.02506765,0.02506765 0 0 0 -0.002585,0 z m 2.06705726,0 a 0.02506765,0.02506765 0 0 0 -0.013951,0.007 l -0.2930055,0.26665 a 0.02491755,0.02491755 0 0 0 -0.00827,0.0186 v 0.41445 h 1.2009605 v -0.2713 a 0.02501762,0.02501762 0 0 0 -0.011885,-0.0212 L 3.552755,296.2804 a 0.02501762,0.02501762 0 0 0 -0.032556,0.005 l -0.1188559,0.14521 -0.00156,0.002 a 0.02501762,0.02501762 0 0 1 -0.03514,0 l -0.3953248,-0.3943 a 0.02506765,0.02506765 0 0 0 -0.018087,-0.007 0.02506765,0.02506765 0 0 0 -0.00259,0 z m 2.0670574,0 a 0.02506765,0.02506765 0 0 0 -0.013952,0.007 l -0.2930054,0.26665 a 0.02491755,0.02491755 0 0 0 -0.00827,0.0186 v 0.41445 h 1.2009604 v -0.2713 a 0.02501762,0.02501762 0 0 0 -0.011885,-0.0212 L 5.6198114,296.2804 a 0.02501762,0.02501762 0 0 0 -0.032556,0.005 l -0.1188558,0.14521 -0.00156,0.002 a 0.02501762,0.02501762 0 0 1 -0.03514,0 l -0.3953248,-0.3943 a 0.02506765,0.02506765 0 0 0 -0.018087,-0.007 0.02506765,0.02506765 0 0 0 -0.00259,0 z"
       style="fill:#008000;stroke-width:0.0015636" /></g></svg>
